<svg version="1.1" id="Layer_1" xmlns="http://www.w3.org/2000/svg" xmlns:xlink="http://www.w3.org/1999/xlink" x="0px" y="0px"
	 width="100%" viewBox="0 0 1024 1024" enable-background="new 0 0 1024 1024" xml:space="preserve">
<path fill="#000000" opacity="1.000000" stroke="none" 
	d="
M638.605713,292.617859 
	C641.233276,306.131409 643.746399,319.235657 646.237244,332.223694 
	C643.398743,333.154114 642.141968,331.848755 640.805481,330.957672 
	C637.895813,329.017792 635.041809,326.993835 632.178162,324.985565 
	C625.365234,320.207611 624.810730,320.482452 623.263367,328.961487 
	C620.842102,342.228821 617.696838,355.324036 613.700806,368.209778 
	C602.725769,403.599762 585.196594,435.465546 562.829895,464.939148 
	C546.916443,485.909088 529.522278,505.682465 513.808655,526.788696 
	C504.032135,539.920349 495.179474,553.664124 489.922577,569.318176 
	C484.161102,586.474854 483.727234,603.345703 494.257507,619.110840 
	C496.173706,621.979614 498.714844,624.430908 501.127197,627.262451 
	C499.468750,629.046082 497.383179,628.313232 495.589386,628.080811 
	C471.137207,624.912720 451.644226,604.420044 448.578125,579.874573 
	C446.372650,562.218628 449.893982,545.486389 454.527588,528.747681 
	C458.648346,513.861694 464.150024,499.370758 465.949097,483.836945 
	C469.025360,457.275085 460.237396,435.662445 439.458374,419.159821 
	C422.086914,405.363525 402.010803,399.971832 379.976929,402.467712 
	C373.871124,403.159363 367.898102,404.833282 362.436646,407.916595 
	C361.211090,408.608459 360.129852,409.871368 357.787231,409.343414 
	C360.180054,401.576660 364.465637,395.267578 370.058105,389.822357 
	C385.084045,375.191925 403.381989,372.231476 423.293121,375.086090 
	C438.923523,377.326965 453.521851,383.117279 468.169983,388.506866 
	C495.091980,398.412537 519.117432,393.570587 541.061401,375.793335 
	C562.804993,358.178406 579.006165,336.222870 591.511108,311.385468 
	C593.746216,306.945984 592.510986,305.122955 586.880615,304.375214 
	C581.138367,303.612579 575.464417,302.602631 570.056641,301.132629 
	C569.620667,298.951233 571.028137,298.380646 572.052917,297.654449 
	C589.986389,284.945526 607.935120,272.258057 625.886047,259.573792 
	C629.684937,256.889465 631.260132,257.830811 632.293457,262.942047 
	C634.269592,272.715698 636.415771,282.454987 638.605713,292.617859 
z"/>
<path fill="#000000" opacity="1.000000" stroke="none" 
	d="
M425.864502,604.207275 
	C390.204712,581.587097 366.307404,550.333862 354.451080,510.221466 
	C346.215607,482.358978 346.324982,454.124969 352.906586,425.875336 
	C353.532928,423.187042 355.431824,421.678467 357.534698,420.260254 
	C370.707550,411.376007 385.348450,409.523651 400.583649,411.988007 
	C419.016907,414.969604 434.581055,423.316223 446.135712,438.367676 
	C447.018860,439.518066 448.304657,440.511017 447.913910,443.271210 
	C424.896027,434.330353 404.588715,437.754120 388.782654,457.605225 
	C380.482330,468.029724 377.560699,480.345703 379.501160,493.375061 
	C381.687500,508.055084 389.667358,519.157715 402.630066,526.609131 
	C415.633606,534.084045 429.290039,533.627808 442.927887,529.777832 
	C445.213287,532.234680 443.560150,534.281250 443.077454,536.215637 
	C438.677734,553.846985 436.476349,571.568237 441.330292,589.453308 
	C444.144318,599.822144 448.929962,609.261108 456.206360,617.594421 
	C445.110779,615.393066 435.578156,610.044067 425.864502,604.207275 
z"/>
<path fill="#000000" opacity="1.000000" stroke="none" 
	d="
M613.990234,511.341980 
	C608.183350,511.354980 602.856079,511.314972 597.531860,511.425049 
	C594.863342,511.480164 593.554443,510.637848 593.613159,507.697357 
	C593.759399,500.374054 593.717468,493.045807 593.663208,485.720184 
	C593.639587,482.535706 594.969543,481.394196 598.220825,481.426483 
	C617.698608,481.619873 637.178711,481.738861 656.656738,481.634460 
	C661.158630,481.610321 662.650269,482.883240 662.682007,487.635376 
	C662.793945,504.391449 660.456787,520.556824 651.787354,535.147583 
	C640.546753,554.065918 623.595642,564.278564 601.745544,566.329956 
	C583.158630,568.075012 565.953491,564.221863 550.912170,552.799194 
	C541.893982,545.950562 534.999390,537.292542 530.330444,526.870178 
	C528.716736,523.267944 528.879761,520.549316 531.580200,517.394714 
	C538.286072,509.560913 544.569092,501.366394 551.109497,493.388519 
	C552.195618,492.063721 552.995544,490.203064 555.130981,489.984283 
	C557.106689,491.517700 556.384644,493.745819 556.495300,495.577209 
	C557.721497,515.878418 570.899231,530.849426 590.579529,534.106140 
	C602.663574,536.105835 617.203430,529.527527 623.837952,519.010071 
	C624.980957,517.198059 626.524170,515.242798 625.342468,513.027161 
	C624.095764,510.689575 621.565308,511.437622 619.465637,511.366425 
	C617.802490,511.310059 616.135986,511.352448 613.990234,511.341980 
z"/>
<path fill="#000000" opacity="1.000000" stroke="none" 
	d="
M585.646484,696.770813 
	C596.770325,684.512512 607.642944,683.106262 622.825195,691.690186 
	C624.596863,688.170227 631.211609,686.149292 634.509094,688.081848 
	C635.897949,688.895752 636.001892,690.235657 635.984619,691.553955 
	C635.744507,709.866882 636.973145,728.211487 635.257263,746.487732 
	C634.185181,757.906982 625.918274,766.079346 614.238586,768.080872 
	C601.512878,770.261597 589.021606,765.338623 584.784485,756.204163 
	C583.709290,753.886292 581.053101,751.208740 583.985474,748.583496 
	C586.267151,746.540710 593.741272,748.271423 595.578064,750.914185 
	C600.051880,757.351135 608.694641,759.079224 616.523987,755.488525 
	C621.721802,753.104736 626.057861,743.425781 623.301636,736.996887 
	C618.762451,740.916992 613.734863,743.114258 607.641907,743.511353 
	C588.912842,744.732178 577.670349,726.230164 579.993835,711.379822 
	C580.801270,706.219177 582.262146,701.322449 585.646484,696.770813 
M623.768188,719.230713 
	C625.897461,709.591553 620.698853,700.145874 612.287537,698.371033 
	C603.030029,696.417664 594.306824,701.856628 592.489746,710.714966 
	C590.346680,721.162354 595.620605,729.791077 605.480347,731.968872 
	C613.287415,733.693298 619.817566,729.374390 623.768188,719.230713 
z"/>
<path fill="#000000" opacity="1.000000" stroke="none" 
	d="
M471.006104,318.130798 
	C439.079224,324.208160 411.381592,337.737885 387.947571,361.015533 
	C387.194397,357.868591 388.771210,356.702667 389.842896,355.496857 
	C413.393707,328.998199 442.487610,312.164581 477.154572,304.476105 
	C492.782227,301.010223 508.473602,299.919525 524.281433,300.817505 
	C541.794678,301.812347 558.825745,305.642670 575.267944,311.903748 
	C578.917908,313.293579 579.501343,315.072906 577.492615,318.668732 
	C570.876099,330.512939 570.903625,330.891846 558.293091,326.007202 
	C537.142029,317.814453 515.275879,314.564850 492.713806,315.381470 
	C485.543976,315.640991 478.474182,316.770050 471.006104,318.130798 
z"/>
<path fill="#000000" opacity="1.000000" stroke="none" 
	d="
M518.911621,336.227448 
	C529.847778,354.407837 521.172485,375.150146 501.496185,378.697449 
	C488.993256,380.951538 476.358215,373.940491 471.599030,362.107819 
	C466.974091,350.608765 471.451172,336.080444 481.692902,329.352753 
	C492.570831,322.207184 507.039917,323.714691 516.034912,332.947815 
	C516.962708,333.900177 517.805603,334.935242 518.911621,336.227448 
z"/>
<path fill="#000000" opacity="1.000000" stroke="none" 
	d="
M588.119629,597.028564 
	C607.814209,590.738037 624.674622,580.158020 640.373718,566.897644 
	C641.292114,569.908691 639.569458,570.848755 638.575623,571.977234 
	C610.045349,604.372925 574.299072,622.986389 531.421875,627.887085 
	C517.097595,629.524353 500.978424,618.686523 497.056396,604.876221 
	C496.647186,603.435425 496.307159,601.981262 497.269196,599.807800 
	C527.529419,607.101807 557.836243,607.431885 588.119629,597.028564 
z"/>
<path fill="#000000" opacity="1.000000" stroke="none" 
	d="
M344.821320,686.822144 
	C349.025757,687.719604 352.433868,689.387817 355.396179,691.945557 
	C357.613678,688.218933 363.168030,686.315308 367.013824,687.661560 
	C368.909058,688.325012 368.859253,689.850708 368.864258,691.319763 
	C368.918274,707.122925 368.918701,722.926331 368.981018,738.729492 
	C368.992096,741.534973 367.962463,743.297668 364.951447,743.140625 
	C361.433594,742.957153 356.686890,744.923706 356.500702,737.846436 
	C349.827667,743.612305 342.389038,745.497864 334.389862,743.922485 
	C322.957031,741.670776 316.056702,734.481567 313.301453,723.188171 
	C309.514771,707.667053 316.445312,693.068909 330.132202,687.835327 
	C334.795349,686.052185 339.596130,686.329041 344.821320,686.822144 
M354.334412,705.341370 
	C349.069519,698.723816 343.191895,696.574585 336.029266,698.647949 
	C329.588989,700.512268 325.049072,706.722534 324.438477,714.503479 
	C323.919159,721.121033 328.112915,728.487854 333.993408,731.288086 
	C339.823425,734.064270 346.779053,732.998352 351.596649,728.590332 
	C357.219147,723.445801 358.397858,714.861145 354.334412,705.341370 
z"/>
<path fill="#000000" opacity="1.000000" stroke="none" 
	d="
M626.552368,355.766449 
	C626.940613,354.422607 627.236816,353.470245 627.524658,352.515381 
	C628.670593,348.713837 630.313782,348.582214 633.027100,351.405579 
	C642.076172,360.821747 649.705872,371.250000 656.229919,382.549011 
	C666.932068,401.084229 673.535034,421.049774 676.611755,442.123230 
	C680.523560,468.916718 677.894226,495.185486 668.931580,520.775513 
	C668.614197,521.681702 668.335022,522.701599 666.976929,523.226074 
	C665.319641,521.901978 666.425720,520.290955 666.791260,518.874573 
	C671.543457,500.461426 672.351929,481.851837 670.015381,463.009247 
	C665.943176,430.169098 653.104370,401.201294 631.040894,376.644135 
	C625.187378,370.129059 623.071594,364.096680 626.552368,355.766449 
z"/>
<path fill="#000000" opacity="1.000000" stroke="none" 
	d="
M482.249084,727.453796 
	C479.543457,720.324158 479.446777,713.423462 481.257660,706.512512 
	C485.063873,691.986450 498.560516,683.956543 514.167725,686.812134 
	C527.854309,689.316345 536.806152,702.153137 535.371765,716.825500 
	C535.039307,720.226562 533.106812,720.355957 530.618347,720.350342 
	C519.965271,720.326294 509.312134,720.302307 498.659332,720.352844 
	C496.911011,720.361145 494.640015,719.664001 493.657349,721.631775 
	C492.641205,723.666504 494.198517,725.469055 495.318909,727.072632 
	C500.229218,734.100830 512.174866,735.517273 518.840759,729.203735 
	C522.394775,725.837463 526.082642,725.728821 530.237488,725.813354 
	C533.771851,725.885376 534.105957,727.570068 532.670776,730.356079 
	C528.711548,738.042236 522.215393,742.289734 513.953430,743.888550 
	C501.061462,746.383240 486.205566,739.695190 482.249084,727.453796 
M506.896027,697.343567 
	C498.128876,699.046021 494.028076,702.846985 493.242126,710.687439 
	C502.350311,710.687439 511.404724,710.790955 520.454224,710.625732 
	C523.247986,710.574768 522.753845,708.392761 522.213440,706.542236 
	C520.672791,701.267029 514.744141,697.500610 506.896027,697.343567 
z"/>
<path fill="#000000" opacity="1.000000" stroke="none" 
	d="
M732.489258,697.592041 
	C740.968384,687.106262 753.392212,683.620667 765.410889,688.117493 
	C776.118835,692.123962 782.642822,702.877441 782.394287,715.537964 
	C782.321716,719.234985 780.991089,720.463867 777.352600,720.403198 
	C766.861267,720.228271 756.365112,720.312866 745.871033,720.353271 
	C743.942566,720.360657 741.595642,719.852478 740.610168,722.184204 
	C739.689148,724.363281 741.338135,726.010193 742.519226,727.554749 
	C747.697021,734.326233 759.086609,735.678406 765.210693,729.672607 
	C768.595459,726.353271 772.098572,725.543091 776.400879,725.760986 
	C781.134827,726.000732 781.675293,726.859314 779.192017,731.142639 
	C773.130615,741.597839 763.623230,745.217468 752.110779,744.222534 
	C741.661987,743.319519 733.900940,738.125549 729.641235,728.398804 
	C725.007935,717.819031 726.255798,707.614990 732.489258,697.592041 
M768.200928,704.459656 
	C763.102783,698.277954 756.923828,695.964600 750.761597,697.930725 
	C744.439453,699.947937 740.718201,704.266296 740.162170,710.782288 
	C748.485962,710.782288 756.769775,710.833557 765.052490,710.763184 
	C770.094055,710.720337 770.365540,710.198059 768.200928,704.459656 
z"/>
<path fill="#000000" opacity="1.000000" stroke="none" 
	d="
M467.441772,697.734741 
	C470.792114,703.506104 472.145050,709.415222 472.208496,715.694519 
	C472.242523,719.059631 470.854553,720.428772 467.411163,720.384399 
	C456.923370,720.249268 446.432648,720.315125 435.943237,720.349426 
	C433.843292,720.356323 431.630585,720.004700 429.781128,721.362305 
	C432.017548,732.793701 446.071777,737.343079 455.257690,729.369751 
	C458.653900,726.421936 461.917450,725.489197 466.056824,725.825134 
	C470.421326,726.179321 470.953003,727.083740 468.838318,731.087158 
	C463.890778,740.453674 452.686554,745.583069 440.210022,744.193359 
	C430.199158,743.078369 420.636902,734.925964 417.873871,725.150452 
	C413.224915,708.702576 420.939545,692.318970 435.566925,687.575745 
	C447.256622,683.784973 459.179321,687.489563 467.441772,697.734741 
M458.839203,707.304199 
	C455.881348,699.954468 449.379791,696.178101 441.896118,697.463074 
	C435.014130,698.644714 430.293884,703.514221 429.827698,710.618958 
	C439.067322,710.618958 448.277649,710.662048 457.486725,710.574707 
	C458.951080,710.560852 459.256714,709.302185 458.839203,707.304199 
z"/>
<path fill="#000000" opacity="1.000000" stroke="none" 
	d="
M296.128479,672.630005 
	C297.764404,673.538025 299.102631,674.233032 300.312714,675.105774 
	C308.010040,680.657288 307.704498,683.833069 299.255280,688.121277 
	C297.320679,689.103088 296.033234,688.373413 294.821594,687.156616 
	C287.461060,679.765076 275.296967,679.465210 267.626526,684.707764 
	C259.222076,690.451904 255.130310,701.522156 257.497986,713.150269 
	C259.617737,723.560730 266.894226,730.620850 277.360626,732.289368 
	C283.532318,733.273254 288.788177,731.043274 293.588501,727.376709 
	C296.919250,724.832581 304.617432,727.377563 305.458588,731.382996 
	C306.013031,734.023132 303.738831,735.202148 302.140137,736.510498 
	C283.558594,751.717529 255.702789,744.243652 247.143173,721.799500 
	C240.391098,704.095032 245.701797,684.452209 260.109131,674.917236 
	C271.448456,667.412598 283.449860,666.907043 296.128479,672.630005 
z"/>
<path fill="#000000" opacity="1.000000" stroke="none" 
	d="
M690.008484,687.038513 
	C697.171509,687.039551 703.838562,686.935486 710.499573,687.092041 
	C713.014648,687.151123 716.588074,685.897339 717.670532,688.965393 
	C718.851562,692.312866 719.014893,696.100769 716.388367,699.387573 
	C709.006226,708.625793 701.731689,717.949951 694.439148,727.259399 
	C693.552734,728.390991 692.135315,729.262573 692.401062,731.857239 
	C699.382568,731.857239 706.452515,731.808533 713.520996,731.889404 
	C715.426453,731.911133 718.107056,730.974304 718.987732,733.118164 
	C720.110962,735.852661 719.700623,739.018188 719.037903,741.931702 
	C718.735535,743.260925 717.212830,743.188538 716.054932,743.190918 
	C703.558716,743.216858 691.062561,743.227600 678.566345,743.226135 
	C677.045898,743.225952 675.203003,743.204956 674.983459,741.321472 
	C674.603577,738.062317 674.104065,734.764221 676.504272,731.789062 
	C682.884277,723.880920 689.164490,715.890686 695.377991,707.850891 
	C697.471863,705.141479 700.189087,702.811584 701.499939,699.090088 
	C697.007507,697.524658 692.688171,698.577942 688.475647,698.324707 
	C685.985168,698.175049 683.478516,698.307495 680.979492,698.283752 
	C675.374695,698.230469 672.592163,693.936096 674.752014,688.714111 
	C675.476074,686.963318 677.000244,686.940186 678.514160,686.944458 
	C682.179565,686.954773 685.844788,687.003723 690.008484,687.038513 
z"/>
<path fill="#000000" opacity="1.000000" stroke="none" 
	d="
M608.277344,449.461548 
	C604.253967,448.917542 600.630188,448.484528 597.016052,447.982208 
	C593.611206,447.508942 590.241577,449.390869 586.596375,448.272949 
	C586.643433,447.455994 586.468018,446.708313 586.746948,446.220245 
	C592.096619,436.859924 597.525757,427.545044 602.872681,418.183136 
	C604.162109,415.925629 605.998413,415.491180 608.355408,415.881622 
	C618.522705,417.565857 627.818176,421.248474 636.099976,427.489410 
	C639.276184,429.882935 640.434875,431.946533 637.516846,435.614044 
	C633.076965,441.194336 629.130310,447.173035 625.084290,453.058228 
	C623.221069,455.768372 621.457092,456.280670 618.499878,454.337585 
	C615.480347,452.353516 611.974243,451.110046 608.277344,449.461548 
z"/>
<path fill="#000000" opacity="1.000000" stroke="none" 
	d="
M411.091125,696.617126 
	C409.647614,698.860046 407.617859,698.146301 405.893707,698.463196 
	C399.174774,699.698120 395.370239,704.008240 395.304474,710.863098 
	C395.216614,720.016479 395.082703,729.177795 395.363770,738.323547 
	C395.540833,744.086792 391.730927,742.962769 388.344421,743.234436 
	C384.530182,743.540344 382.977448,742.232178 383.021301,738.196106 
	C383.182251,723.384888 383.017914,708.570312 383.096008,693.757690 
	C383.107819,691.517212 381.908417,687.918701 385.698883,687.900024 
	C389.248566,687.882568 394.429871,684.835205 395.739258,692.112183 
	C398.456024,689.515930 401.366455,687.989929 404.610077,687.169556 
	C409.928314,685.824463 411.268677,686.829956 411.327576,692.193054 
	C411.342163,693.522522 411.259674,694.852966 411.091125,696.617126 
z"/>
<path fill="#000000" opacity="1.000000" stroke="none" 
	d="
M546.493713,711.231628 
	C546.566223,705.146362 546.431335,699.485413 546.737244,693.848511 
	C546.851196,691.749023 544.890930,688.079712 548.901733,687.868469 
	C552.400757,687.684082 557.138367,685.555359 558.674927,691.604370 
	C562.285400,689.066650 565.796448,686.883179 570.141785,686.718567 
	C572.597168,686.625610 574.764038,687.161194 574.270508,690.146606 
	C573.802307,692.978699 576.588989,697.156006 571.463013,698.320557 
	C560.206360,700.877747 558.316040,703.121155 558.290100,714.471130 
	C558.272217,722.283936 557.993469,730.114075 558.418030,737.904480 
	C558.769287,744.349670 554.520142,742.971130 550.862244,743.281433 
	C546.673584,743.636719 546.479797,741.390564 546.545715,738.057678 
	C546.719666,729.264282 546.515198,720.463440 546.493713,711.231628 
z"/>
<path fill="#000000" opacity="1.000000" stroke="none" 
	d="
M662.339111,691.198608 
	C662.353088,706.962830 662.218872,722.246948 662.429077,737.526306 
	C662.487854,741.800293 661.316040,743.402283 656.831787,743.344666 
	C652.521606,743.289307 650.535828,742.403809 650.622681,737.542114 
	C650.889709,722.596741 650.709961,707.643494 650.728210,692.693359 
	C650.730835,690.534180 650.578491,687.715515 653.632202,687.978455 
	C656.608337,688.234802 660.887756,685.348083 662.339111,691.198608 
z"/>
<path fill="#000000" opacity="1.000000" stroke="none" 
	d="
M647.250977,669.967896 
	C645.493042,668.218750 643.408630,667.281616 642.266174,664.253784 
	C648.705200,663.687378 654.391113,661.791077 656.018250,654.079346 
	C659.545471,659.894287 663.040039,664.754700 670.667236,664.884094 
	C665.620117,669.294739 663.921204,674.434387 665.540405,682.039246 
	C659.193115,677.305725 653.885925,676.917969 648.797913,681.149048 
	C646.472046,677.255798 650.539673,673.364075 647.250977,669.967896 
z"/>
</svg>